<svg xmlns="http://www.w3.org/2000/svg" width="2400" height="1350" viewBox="0 0 2400 1350">
      <defs>
        <linearGradient id="bg" x1="0" x2="1" y1="0" y2="1"><stop stop-color="#050507"/><stop offset=".55" stop-color="#151114"/><stop offset="1" stop-color="#030305"/></linearGradient>
        <radialGradient id="glow" cx="70%" cy="32%" r="70%"><stop stop-color="hsl(146 88% 60%)" stop-opacity=".42"/><stop offset=".45" stop-color="hsl(104 76% 46%)" stop-opacity=".2"/><stop offset="1" stop-color="#050507" stop-opacity="0"/></radialGradient>
        <filter id="grain"><feTurbulence type="fractalNoise" baseFrequency=".62" numOctaves="3"/><feColorMatrix type="saturate" values="0"/><feComponentTransfer><feFuncA type="table" tableValues="0 .12"/></feComponentTransfer></filter>
      </defs>
      <rect width="100%" height="100%" fill="url(#bg)"/>
      <rect width="100%" height="100%" fill="url(#glow)"/>
      <g opacity=".18"><path d="M-192 243 C 576 121.5 1488 189.00000000000003 2592 108" fill="none" stroke="white" stroke-width="4.32"/><path d="M-192 317.25 C 576 175.5 1488 256.5 2592 189.00000000000003" fill="none" stroke="white" stroke-width="4.32"/><path d="M-192 391.5 C 576 229.49999999999997 1488 324 2592 270" fill="none" stroke="white" stroke-width="4.32"/><path d="M-192 465.74999999999994 C 576 283.5 1488 391.50000000000006 2592 351" fill="none" stroke="white" stroke-width="4.32"/><path d="M-192 540 C 576 337.5 1488 459.00000000000006 2592 432" fill="none" stroke="white" stroke-width="4.32"/><path d="M-192 614.25 C 576 391.50000000000006 1488 526.5 2592 513" fill="none" stroke="white" stroke-width="4.32"/><path d="M-192 688.5 C 576 445.49999999999994 1488 594.0000000000001 2592 594" fill="none" stroke="white" stroke-width="4.32"/><path d="M-192 762.7499999999999 C 576 499.5 1488 661.5000000000001 2592 675" fill="none" stroke="white" stroke-width="4.32"/><path d="M-192 837 C 576 553.5 1488 729 2592 755.9999999999999" fill="none" stroke="white" stroke-width="4.32"/><path d="M-192 911.2500000000001 C 576 607.4999999999999 1488 796.5000000000001 2592 837" fill="none" stroke="white" stroke-width="4.32"/><path d="M-192 985.5 C 576 661.5 1488 864 2592 917.9999999999999" fill="none" stroke="white" stroke-width="4.32"/><path d="M-192 1059.75 C 576 715.5 1488 931.5000000000001 2592 998.9999999999999" fill="none" stroke="white" stroke-width="4.32"/></g>
      <g opacity=".76">
        <rect x="336.00000000000006" y="297" width="1728" height="756.0000000000001" rx="47.25000000000001" fill="rgba(0,0,0,.42)" stroke="hsl(104 76% 46%)" stroke-width="14.4"/>
        <circle cx="1632.0000000000002" cy="567" r="189.00000000000003" fill="hsl(146 88% 60%)" opacity=".25"/>
        <path d="M864 1039.5 L1200 486 L1584 1039.5 Z" fill="rgba(255,255,255,.08)" stroke="rgba(255,255,255,.18)" stroke-width="4.8"/>
      </g>
      <rect width="100%" height="100%" fill="black" opacity=".12"/>
      <rect width="100%" height="100%" filter="url(#grain)"/>
      <text x="168.00000000000003" y="1188" fill="white" font-family="Arial, Helvetica, sans-serif" font-size="144" font-weight="800" letter-spacing="-2">Night of the Living Dead</text>
      <text x="172.79999999999998" y="1269" fill="rgba(255,255,255,.68)" font-family="Arial, Helvetica, sans-serif" font-size="57.6" font-weight="700" letter-spacing="5">MOVIANX GENERATED</text>
    </svg>