<svg xmlns="http://www.w3.org/2000/svg" width="1200" height="675" viewBox="0 0 1200 675">
      <defs>
        <linearGradient id="bg" x1="0" x2="1" y1="0" y2="1"><stop stop-color="#050507"/><stop offset=".55" stop-color="#151114"/><stop offset="1" stop-color="#030305"/></linearGradient>
        <radialGradient id="glow" cx="70%" cy="32%" r="70%"><stop stop-color="hsl(303 88% 60%)" stop-opacity=".42"/><stop offset=".45" stop-color="hsl(261 76% 46%)" stop-opacity=".2"/><stop offset="1" stop-color="#050507" stop-opacity="0"/></radialGradient>
        <filter id="grain"><feTurbulence type="fractalNoise" baseFrequency=".62" numOctaves="3"/><feColorMatrix type="saturate" values="0"/><feComponentTransfer><feFuncA type="table" tableValues="0 .12"/></feComponentTransfer></filter>
      </defs>
      <rect width="100%" height="100%" fill="url(#bg)"/>
      <rect width="100%" height="100%" fill="url(#glow)"/>
      <g opacity=".18"><path d="M-96 121.5 C 288 60.75 744 94.50000000000001 1296 54" fill="none" stroke="white" stroke-width="2.16"/><path d="M-96 158.625 C 288 87.75 744 128.25 1296 94.50000000000001" fill="none" stroke="white" stroke-width="2.16"/><path d="M-96 195.75 C 288 114.74999999999999 744 162 1296 135" fill="none" stroke="white" stroke-width="2.16"/><path d="M-96 232.87499999999997 C 288 141.75 744 195.75000000000003 1296 175.5" fill="none" stroke="white" stroke-width="2.16"/><path d="M-96 270 C 288 168.75 744 229.50000000000003 1296 216" fill="none" stroke="white" stroke-width="2.16"/><path d="M-96 307.125 C 288 195.75000000000003 744 263.25 1296 256.5" fill="none" stroke="white" stroke-width="2.16"/><path d="M-96 344.25 C 288 222.74999999999997 744 297.00000000000006 1296 297" fill="none" stroke="white" stroke-width="2.16"/><path d="M-96 381.37499999999994 C 288 249.75 744 330.75000000000006 1296 337.5" fill="none" stroke="white" stroke-width="2.16"/><path d="M-96 418.5 C 288 276.75 744 364.5 1296 377.99999999999994" fill="none" stroke="white" stroke-width="2.16"/><path d="M-96 455.62500000000006 C 288 303.74999999999994 744 398.25000000000006 1296 418.5" fill="none" stroke="white" stroke-width="2.16"/><path d="M-96 492.75 C 288 330.75 744 432 1296 458.99999999999994" fill="none" stroke="white" stroke-width="2.16"/><path d="M-96 529.875 C 288 357.75 744 465.75000000000006 1296 499.49999999999994" fill="none" stroke="white" stroke-width="2.16"/></g>
      <g opacity=".76">
        <rect x="168.00000000000003" y="148.5" width="864" height="378.00000000000006" rx="23.625000000000004" fill="rgba(0,0,0,.42)" stroke="hsl(261 76% 46%)" stroke-width="7.2"/>
        <circle cx="816.0000000000001" cy="283.5" r="94.50000000000001" fill="hsl(303 88% 60%)" opacity=".25"/>
        <path d="M432 519.75 L600 243 L792 519.75 Z" fill="rgba(255,255,255,.08)" stroke="rgba(255,255,255,.18)" stroke-width="2.4"/>
      </g>
      <rect width="100%" height="100%" fill="black" opacity=".12"/>
      <rect width="100%" height="100%" filter="url(#grain)"/>
      <text x="84.00000000000001" y="594" fill="white" font-family="Arial, Helvetica, sans-serif" font-size="72" font-weight="800" letter-spacing="-2">10 Seconds</text>
      <text x="86.39999999999999" y="634.5" fill="rgba(255,255,255,.68)" font-family="Arial, Helvetica, sans-serif" font-size="28.8" font-weight="700" letter-spacing="5">MOVIANX GENERATED</text>
    </svg>